<mxfile host="app.diagrams.net" modified="2024-01-01T03:30:31.787Z" agent="Mozilla/5.0 (Windows NT 10.0; Win64; x64) AppleWebKit/537.36 (KHTML, like Gecko) Chrome/120.0.0.0 Safari/537.36 Edg/120.0.0.0" version="22.1.16" etag="R_VsoPOhEdiHJHULgNXB" type="github">
  <diagram name="第 1 页" id="2WmyflCK8ktEX4IRngpf">
    <mxGraphModel>
      <root>
        <mxCell id="0" />
        <mxCell id="1" parent="0" />
      </root>
    </mxGraphModel>
  </diagram>
</mxfile>
